<?xml version="1.0" encoding="UTF-8"?>
<!DOCTYPE svg PUBLIC "-//W3C//DTD SVG 1.1//EN" "http://www.w3.org/Graphics/SVG/1.1/DTD/svg11.dtd">
<svg xmlns="http://www.w3.org/2000/svg" version="1.1" width="1200px" height="1200px" style="shape-rendering:geometricPrecision; text-rendering:geometricPrecision; image-rendering:optimizeQuality; fill-rule:evenodd; clip-rule:evenodd" xmlns:xlink="http://www.w3.org/1999/xlink">
<g><path style="opacity:1" fill="#231f20" d="M 719.5,229.5 C 721.046,231.882 721.713,234.549 721.5,237.5C 722.5,237.5 723.5,237.5 724.5,237.5C 722.514,241.852 723.848,244.519 728.5,245.5C 728.714,247.144 728.38,248.644 727.5,250C 728.964,251.864 729.964,254.031 730.5,256.5C 731.251,255.624 731.751,254.624 732,253.5C 734.995,259.823 736.329,266.49 736,273.5C 733.542,269.619 732.042,269.786 731.5,274C 732.194,276.553 733.027,279.053 734,281.5C 735,280.167 736,278.833 737,277.5C 737.775,284.038 737.609,290.538 736.5,297C 738.323,302.658 738.989,308.491 738.5,314.5C 738.33,319.852 737.33,325.018 735.5,330C 736.471,331.481 737.804,332.315 739.5,332.5C 751.047,342.243 760.214,353.91 767,367.5C 777.512,387.871 785.345,409.204 790.5,431.5C 792.704,440.318 793.871,449.318 794,458.5C 795.83,460.158 797.164,462.158 798,464.5C 798.089,468.028 798.756,471.362 800,474.5C 800.709,478.868 800.542,483.201 799.5,487.5C 799.875,489.459 800.541,491.293 801.5,493C 800.88,495.102 799.88,495.935 798.5,495.5C 795.841,487.182 793.174,478.849 790.5,470.5C 783.471,434.574 770.638,400.907 752,369.5C 746.316,360.146 738.482,353.312 728.5,349C 723.831,347.462 720.664,348.962 719,353.5C 718.333,356.167 718.333,358.833 719,361.5C 735.432,382.027 749.598,404.027 761.5,427.5C 762.72,432.521 764.22,437.521 766,442.5C 769.583,446.451 771.916,451.118 773,456.5C 773.708,457.381 774.542,458.047 775.5,458.5C 780.042,469.796 783.375,481.463 785.5,493.5C 785.945,502.182 786.612,510.849 787.5,519.5C 786.088,524.433 785.088,529.433 784.5,534.5C 784.833,534.833 785.167,535.167 785.5,535.5C 786.167,534.833 786.833,534.167 787.5,533.5C 787.833,536.833 788.167,540.167 788.5,543.5C 787.609,553.844 786.609,564.177 785.5,574.5C 782.074,589.272 776.574,603.272 769,616.5C 763.313,621.428 756.813,624.928 749.5,627C 726.686,633.858 703.353,637.358 679.5,637.5C 650.734,637.447 622.067,636.447 593.5,634.5C 592.833,634.5 592.167,634.5 591.5,634.5C 570.58,630.183 549.247,626.849 527.5,624.5C 496.107,620.94 471.274,606.274 453,580.5C 437.187,556.266 431.687,529.932 436.5,501.5C 439.231,494.372 441.064,486.705 442,478.5C 443.234,476.266 445.067,474.766 447.5,474C 446.552,473.517 445.552,473.351 444.5,473.5C 445.179,467.796 446.179,462.129 447.5,456.5C 455.008,435.483 464.675,415.483 476.5,396.5C 468.894,391.356 460.561,388.522 451.5,388C 449.002,394.17 446.335,400.337 443.5,406.5C 435.208,422.205 429.375,438.872 426,456.5C 422.295,474.73 419.461,493.064 417.5,511.5C 416.122,520.318 415.122,529.318 414.5,538.5C 413.206,540.048 412.539,542.048 412.5,544.5C 411.279,559.812 410.445,575.145 410,590.5C 409.333,593.167 408.667,593.167 408,590.5C 407.5,591 407,591.5 406.5,592C 407.227,593.399 407.727,594.899 408,596.5C 408.167,615.667 408.333,634.833 408.5,654C 408.468,675.25 408.134,696.25 407.5,717C 408.253,718.487 409.086,718.654 410,717.5C 410.667,731.167 410.667,744.833 410,758.5C 407.873,759.397 407.373,760.731 408.5,762.5C 409.842,761.098 410.676,761.431 411,763.5C 411.712,770.998 412.546,778.331 413.5,785.5C 414.43,789.4 414.763,793.4 414.5,797.5C 414.137,813.067 414.804,828.567 416.5,844C 415.377,850.466 415.877,856.632 418,862.5C 419.403,890.06 421.57,917.56 424.5,945C 424.204,947.572 424.037,950.072 424,952.5C 424.852,951.429 425.685,950.429 426.5,949.5C 430.558,987.691 434.724,1026.02 439,1064.5C 440.506,1075.22 442.173,1085.89 444,1096.5C 475.791,1117.04 510.291,1131.04 547.5,1138.5C 557.233,1141.01 567.233,1142.68 577.5,1143.5C 579.265,1144.46 581.265,1144.79 583.5,1144.5C 584.263,1145.27 585.263,1145.77 586.5,1146C 604.5,1146.67 622.5,1146.67 640.5,1146C 645.833,1145.28 650.833,1144.11 655.5,1142.5C 667.359,1142.21 679.025,1140.38 690.5,1137C 697.483,1135.88 704.483,1134.88 711.5,1134C 710.542,1132.85 710.875,1131.85 712.5,1131C 719.777,1129.75 726.444,1127.25 732.5,1123.5C 734.547,1123.49 736.547,1123.16 738.5,1122.5C 740.088,1123.01 741.255,1124.01 742,1125.5C 744.65,1123.68 746.817,1121.35 748.5,1118.5C 760.047,1113.89 771.38,1109.05 782.5,1104C 782.167,1103.67 781.833,1103.33 781.5,1103C 786.17,1101 790.837,1099 795.5,1097C 796.823,1096.18 797.489,1095.02 797.5,1093.5C 797.842,1092.66 798.508,1092.33 799.5,1092.5C 802.204,1092.33 803.871,1091 804.5,1088.5C 805.199,1086.44 806.199,1084.44 807.5,1082.5C 806.389,1081.39 805.722,1080.06 805.5,1078.5C 806.497,918.188 806.831,757.855 806.5,597.5C 807.5,597.5 808.5,597.5 809.5,597.5C 809.5,593.5 809.5,589.5 809.5,585.5C 808.448,585.351 807.448,585.517 806.5,586C 807.517,587.049 807.684,588.216 807,589.5C 805.806,587.377 805.14,585.043 805,582.5C 804.742,568.292 803.909,554.126 802.5,540C 802.667,536.833 802.833,533.667 803,530.5C 803.39,534.166 804.557,534.332 806.5,531C 804.253,529.005 803.253,526.505 803.5,523.5C 802.5,523.5 801.5,523.5 800.5,523.5C 800.598,517.751 799.931,512.085 798.5,506.5C 798.833,504.833 799.167,503.167 799.5,501.5C 800.429,502.55 801.095,502.55 801.5,501.5C 803.344,503.279 804.01,505.612 803.5,508.5C 804.5,508.5 805.5,508.5 806.5,508.5C 807.719,519.475 808.719,530.475 809.5,541.5C 807.833,541.5 806.167,541.5 804.5,541.5C 804.67,542.822 804.337,543.989 803.5,545C 804.293,548.411 804.793,551.911 805,555.5C 804.962,550.858 805.962,546.525 808,542.5C 808.619,545.032 809.619,547.365 811,549.5C 811.035,553.931 810.535,557.931 809.5,561.5C 811.124,561.64 812.29,560.973 813,559.5C 813.198,561.382 813.698,563.048 814.5,564.5C 816.269,582.319 818.269,599.985 820.5,617.5C 820.5,617.833 820.5,618.167 820.5,618.5C 820.5,623.167 820.5,627.833 820.5,632.5C 821.757,678.2 823.59,723.867 826,769.5C 826.667,819.167 826.667,868.833 826,918.5C 824.558,959.482 823.391,1000.48 822.5,1041.5C 822.5,1041.83 822.5,1042.17 822.5,1042.5C 820.517,1056.46 819.85,1070.79 820.5,1085.5C 820.5,1087.17 820.5,1088.83 820.5,1090.5C 823.912,1089.96 826.912,1088.62 829.5,1086.5C 834.167,1084.5 838.833,1082.5 843.5,1080.5C 843.577,1081.75 844.244,1082.58 845.5,1083C 843.109,1083.29 840.776,1083.79 838.5,1084.5C 837.612,1088.77 835.279,1090.11 831.5,1088.5C 827.817,1090 824.151,1091.33 820.5,1092.5C 820.5,1094.83 820.5,1097.17 820.5,1099.5C 811.86,1105.16 802.86,1110.32 793.5,1115C 795.488,1115.18 797.488,1115.01 799.5,1114.5C 795.425,1116.43 791.092,1117.93 786.5,1119C 784.5,1120.33 782.833,1122 781.5,1124C 773.837,1126.58 766.67,1130.08 760,1134.5C 759.439,1133.98 758.772,1133.64 758,1133.5C 748.484,1137 738.984,1140.67 729.5,1144.5C 728.914,1144.29 728.414,1143.96 728,1143.5C 721.185,1146.33 714.185,1148.67 707,1150.5C 704.505,1151.75 701.338,1151.75 697.5,1150.5C 695.8,1151.61 694.466,1152.94 693.5,1154.5C 669.633,1158.15 645.633,1160.49 621.5,1161.5C 614.982,1159.97 608.315,1159.64 601.5,1160.5C 590.873,1159.19 580.206,1158.35 569.5,1158C 552.727,1154.32 536.06,1150.65 519.5,1147C 508.755,1144.25 498.089,1141.75 487.5,1139.5C 470.474,1132.65 453.474,1125.82 436.5,1119C 433.293,1118.43 431.626,1116.59 431.5,1113.5C 428.404,1112.91 426.071,1113.91 424.5,1116.5C 424.167,1114.5 423.833,1112.5 423.5,1110.5C 420.231,1109.53 417.231,1108.2 414.5,1106.5C 419.686,1107.56 424.686,1109.23 429.5,1111.5C 429.833,1110.67 430.167,1109.83 430.5,1109C 428.842,1101.54 427.509,1094.04 426.5,1086.5C 423.802,1068.5 420.635,1050.5 417,1032.5C 416.378,1028.97 416.545,1025.47 417.5,1022C 417.299,1018.71 416.465,1018.21 415,1020.5C 414.667,1017.83 414.333,1015.17 414,1012.5C 413.617,1013.06 413.117,1013.39 412.5,1013.5C 410.438,1004.74 409.105,995.74 408.5,986.5C 408.666,981.821 408.499,977.155 408,972.5C 406.944,967.567 405.944,962.567 405,957.5C 402.404,933.169 399.571,909.169 396.5,885.5C 393.981,869.076 392.648,852.409 392.5,835.5C 392.667,820.496 392.5,805.496 392,790.5C 391.617,789.944 391.117,789.611 390.5,789.5C 389.947,738.785 390.781,688.118 393,637.5C 394.91,607.979 397.744,578.646 401.5,549.5C 402.308,547.577 402.808,545.577 403,543.5C 403.914,544.654 404.747,544.487 405.5,543C 403.07,540.695 402.07,537.862 402.5,534.5C 408.1,483.688 417.766,433.688 431.5,384.5C 419.498,382.833 409.498,377.5 401.5,368.5C 399.378,365.043 397.711,361.377 396.5,357.5C 395.386,353.236 394.219,348.903 393,344.5C 392.283,333.145 392.449,321.811 393.5,310.5C 395.33,302.675 398.33,295.341 402.5,288.5C 411.742,275.391 424.409,270.224 440.5,273C 460.139,276.155 478.139,283.322 494.5,294.5C 498.107,260.452 512.44,231.952 537.5,209C 556.463,194.843 577.796,186.676 601.5,184.5C 606.54,161.158 620.54,152.325 643.5,158C 654.71,165.237 661.043,175.57 662.5,189C 679.613,195.145 694.947,204.145 708.5,216C 713.16,219.813 716.827,224.313 719.5,229.5 Z"/></g>
<g><path style="opacity:0.973" fill="#262626" d="M 693.5,1154.5 C 694.466,1152.94 695.8,1151.61 697.5,1150.5C 701.338,1151.75 704.505,1151.75 707,1150.5C 714.185,1148.67 721.185,1146.33 728,1143.5C 728.414,1143.96 728.914,1144.29 729.5,1144.5C 738.984,1140.67 748.484,1137 758,1133.5C 758.772,1133.64 759.439,1133.98 760,1134.5C 766.67,1130.08 773.837,1126.58 781.5,1124C 782.833,1122 784.5,1120.33 786.5,1119C 791.092,1117.93 795.425,1116.43 799.5,1114.5C 877.007,1083.86 944.507,1038.19 1002,977.5C 1003.83,975.167 1005.67,972.833 1007.5,970.5C 1004.22,968.573 1000.89,966.74 997.5,965C 998.823,964.184 999.489,963.017 999.5,961.5C 999.328,960.508 999.662,959.842 1000.5,959.5C 1003.39,958.118 1005.89,956.118 1008,953.5C 1011.67,949.462 1014.84,945.129 1017.5,940.5C 1058.4,889.052 1089.74,832.052 1111.5,769.5C 1112.31,768.571 1113.15,767.571 1114,766.5C 1115.47,763.342 1116.47,760.009 1117,756.5C 1118.57,765.705 1119.74,765.538 1120.5,756C 1119.06,754.874 1118.39,753.374 1118.5,751.5C 1120.31,741.742 1122.98,732.242 1126.5,723C 1126.17,722.667 1125.83,722.333 1125.5,722C 1127.59,716.724 1128.59,711.224 1128.5,705.5C 1128.5,704.5 1128.5,703.5 1128.5,702.5C 1145.63,611.481 1140.3,521.815 1112.5,433.5C 1112.67,429.818 1112.5,426.152 1112,422.5C 1111.67,422.833 1111.33,423.167 1111,423.5C 1107.93,419.09 1108.43,415.09 1112.5,411.5C 1111.09,410.376 1109.59,409.376 1108,408.5C 1107.69,409.308 1107.19,409.975 1106.5,410.5C 1105.78,408.213 1105.45,406.046 1105.5,404C 1107.27,403.465 1107.6,402.631 1106.5,401.5C 1105.28,402.263 1104.28,403.263 1103.5,404.5C 1102.69,402.234 1102.19,399.9 1102,397.5C 1101.11,398.888 1100.61,398.722 1100.5,397C 1102.65,395.297 1102.48,393.464 1100,391.5C 1099.67,391.833 1099.33,392.167 1099,392.5C 1097.58,390.007 1096.08,387.674 1094.5,385.5C 1072.7,337.877 1045.37,293.877 1012.5,253.5C 1012.3,251.362 1011.3,249.695 1009.5,248.5C 1009.83,247.833 1010.17,247.167 1010.5,246.5C 1005.96,244.786 1003.29,241.453 1002.5,236.5C 1000.47,237.629 1000.14,237.129 1001.5,235C 994.35,233.016 989.684,228.516 987.5,221.5C 988.5,221.5 989.5,221.5 990.5,221.5C 990.64,219.876 989.973,218.71 988.5,218C 986.205,216.498 983.872,216.332 981.5,217.5C 979.711,216.037 977.711,215.037 975.5,214.5C 932.054,172.098 882.72,138.098 827.5,112.5C 815.736,106.617 803.736,101.284 791.5,96.5C 790.652,94.9069 789.319,93.7403 787.5,93C 778.263,90.0176 768.93,87.0176 759.5,84C 756.522,83.304 753.522,82.804 750.5,82.5C 747.848,82.5905 745.515,81.9238 743.5,80.5C 741.695,78.8031 739.361,77.9698 736.5,78C 736.833,77.6667 737.167,77.3333 737.5,77C 713.2,71.108 688.534,66.7746 663.5,64C 666.028,63.3311 666.028,62.4978 663.5,61.5C 658.22,62.6178 652.887,62.7845 647.5,62C 647.957,61.586 648.291,61.086 648.5,60.5C 647,60.1667 645.5,59.8333 644,59.5C 613.607,60.8037 583.273,60.8037 553,59.5C 552.517,60.448 552.351,61.448 552.5,62.5C 538.723,63.0686 525.056,64.5686 511.5,67C 510.944,67.3826 510.611,67.8826 510.5,68.5C 368.998,94.6999 254.665,164.367 167.5,277.5C 166.849,278.091 166.182,278.757 165.5,279.5C 164.269,277.55 162.602,276.717 160.5,277C 160.833,277.333 161.167,277.667 161.5,278C 158.722,280.878 157.056,284.378 156.5,288.5C 155.105,287.185 154.105,287.519 153.5,289.5C 154.95,290.85 155.617,292.516 155.5,294.5C 154.833,295.833 154.167,297.167 153.5,298.5C 106.129,367.628 76.7961,443.961 65.5,527.5C 64.7514,533.155 64.0848,538.822 63.5,544.5C 63.2461,547.014 62.4127,549.348 61,551.5C 57.9245,581.121 57.7578,610.788 60.5,640.5C 60.1894,648.849 59.1894,657.016 57.5,665C 57.6667,667.833 57.8333,670.667 58,673.5C 59.1697,670.495 60.3364,667.495 61.5,664.5C 61.0609,662.896 60.3943,661.396 59.5,660C 59.6301,658.941 60.1301,658.108 61,657.5C 63.1104,665.008 62.6104,672.341 59.5,679.5C 59.5565,680.737 60.0565,681.737 61,682.5C 61.5399,679.639 62.5399,676.972 64,674.5C 64.7125,681.275 66.2125,687.608 68.5,693.5C 91.695,816.263 149.362,919.263 241.5,1002.5C 240.003,1007.67 239.67,1013.01 240.5,1018.5C 312.099,1080.46 394.432,1120.8 487.5,1139.5C 498.089,1141.75 508.755,1144.25 519.5,1147C 536.06,1150.65 552.727,1154.32 569.5,1158C 580.206,1158.35 590.873,1159.19 601.5,1160.5C 608.315,1159.64 614.982,1159.97 621.5,1161.5C 449.046,1164.82 303.546,1104.49 185,980.5C 72.1501,852.6 24.1501,703.267 41,532.5C 65.6733,357.011 151.507,220.844 298.5,124C 443.872,35.8527 598.539,14.8527 762.5,61C 919.674,111.516 1034.84,210.682 1108,358.5C 1165.75,484.401 1177.08,614.401 1142,748.5C 1100.76,890.909 1017.6,1001.41 892.5,1080C 830.783,1116.96 764.45,1141.8 693.5,1154.5 Z"/></g>
<g><path style="opacity:1" fill="#72a9e3" d="M 826.5,725.5 C 827.33,735.992 827.83,746.659 828,757.5C 828.83,827.541 828.663,897.541 827.5,967.5C 828.167,968.5 828.833,969.5 829.5,970.5C 828.03,973.308 827.197,976.308 827,979.5C 825.603,1012.23 824.103,1045.07 822.5,1078C 822.089,1082.68 822.423,1084.85 823.5,1084.5C 826.209,1084.55 828.209,1085.22 829.5,1086.5C 826.912,1088.62 823.912,1089.96 820.5,1090.5C 820.5,1088.83 820.5,1087.17 820.5,1085.5C 821.855,1071.35 822.522,1057.02 822.5,1042.5C 822.5,1042.17 822.5,1041.83 822.5,1041.5C 825.052,1002.03 826.552,962.368 827,922.5C 827.684,856.83 827.518,791.164 826.5,725.5 Z"/></g>
<g><path style="opacity:1" fill="#208966" d="M 790.5,470.5 C 795.512,492.581 798.845,514.915 800.5,537.5C 800.401,548.194 800.901,558.86 802,569.5C 802.5,742.833 802.667,916.166 802.5,1089.5C 801.306,1090.27 800.306,1091.27 799.5,1092.5C 798.508,1092.33 797.842,1092.66 797.5,1093.5C 776.455,1104.86 754.789,1114.86 732.5,1123.5C 710.09,1131.52 687.09,1137.19 663.5,1140.5C 644.953,1141.48 626.453,1142.82 608,1144.5C 597.838,1143.96 587.672,1143.63 577.5,1143.5C 567.233,1142.68 557.233,1141.01 547.5,1138.5C 548.167,1138.5 548.833,1138.5 549.5,1138.5C 554.715,1138.76 559.882,1139.43 565,1140.5C 602.162,1135.89 636.328,1123.39 667.5,1103C 700.721,1078.1 723.221,1045.6 735,1005.5C 742.041,980.921 747.041,955.921 750,930.5C 755.156,893.332 757.156,855.998 756,818.5C 752.835,766.82 738.668,718.487 713.5,673.5C 654.633,676.137 600.633,661.471 551.5,629.5C 564.843,631.17 578.176,632.837 591.5,634.5C 592.167,634.5 592.833,634.5 593.5,634.5C 622.08,638.304 650.746,639.304 679.5,637.5C 703.353,637.358 726.686,633.858 749.5,627C 756.813,624.928 763.313,621.428 769,616.5C 776.574,603.272 782.074,589.272 785.5,574.5C 792.13,547.507 792.13,520.507 785.5,493.5C 783.375,481.463 780.042,469.796 775.5,458.5C 771.635,447.773 766.968,437.439 761.5,427.5C 749.598,404.027 735.432,382.027 719,361.5C 718.333,358.833 718.333,356.167 719,353.5C 720.664,348.962 723.831,347.462 728.5,349C 738.482,353.312 746.316,360.146 752,369.5C 770.638,400.907 783.471,434.574 790.5,470.5 Z"/></g>
<g><path style="opacity:1" fill="#1e2120" d="M 790.5,470.5 C 793.174,478.849 795.841,487.182 798.5,495.5C 799.23,496.712 800.23,497.712 801.5,498.5C 800.209,499.527 800.209,500.527 801.5,501.5C 801.095,502.55 800.429,502.55 799.5,501.5C 799.167,503.167 798.833,504.833 798.5,506.5C 799.931,512.085 800.598,517.751 800.5,523.5C 801.5,523.5 802.5,523.5 803.5,523.5C 803.253,526.505 804.253,529.005 806.5,531C 804.557,534.332 803.39,534.166 803,530.5C 802.833,533.667 802.667,536.833 802.5,540C 803.909,554.126 804.742,568.292 805,582.5C 805.14,585.043 805.806,587.377 807,589.5C 807.684,588.216 807.517,587.049 806.5,586C 807.448,585.517 808.448,585.351 809.5,585.5C 809.5,589.5 809.5,593.5 809.5,597.5C 808.5,597.5 807.5,597.5 806.5,597.5C 806.831,757.855 806.497,918.188 805.5,1078.5C 805.722,1080.06 806.389,1081.39 807.5,1082.5C 806.199,1084.44 805.199,1086.44 804.5,1088.5C 804.833,920.999 804.5,753.666 803.5,586.5C 803.341,569.963 802.341,553.63 800.5,537.5C 798.845,514.915 795.512,492.581 790.5,470.5 Z"/></g>
<g><path style="opacity:1" fill="#1d3e33" d="M 803.5,586.5 C 804.5,753.666 804.833,920.999 804.5,1088.5C 803.871,1091 802.204,1092.33 799.5,1092.5C 800.306,1091.27 801.306,1090.27 802.5,1089.5C 803.5,922.001 803.833,754.334 803.5,586.5 Z"/></g>
<g><path style="opacity:1" fill="#317e64" d="M 800.5,537.5 C 802.341,553.63 803.341,569.963 803.5,586.5C 803.833,754.334 803.5,922.001 802.5,1089.5C 802.667,916.166 802.5,742.833 802,569.5C 800.901,558.86 800.401,548.194 800.5,537.5 Z"/></g>
<g><path style="opacity:1" fill="#67b0f8" d="M 1111.5,433.5 C 1070.54,433.716 1041.7,452.383 1025,489.5C 997.754,480.809 975.087,487.476 957,509.5C 947.877,521.985 944.044,535.985 945.5,551.5C 922.15,553.021 907.316,565.021 901,587.5C 898.376,620.036 913.209,638.369 945.5,642.5C 957.135,642.124 967.301,638.124 976,630.5C 977.537,663.1 993.704,684.6 1024.5,695C 1054.41,700.87 1078.41,691.703 1096.5,667.5C 1104.4,681.734 1115.07,693.401 1128.5,702.5C 1128.5,703.5 1128.5,704.5 1128.5,705.5C 1127.04,710.341 1125.7,715.341 1124.5,720.5C 1112.97,713.642 1102.97,704.976 1094.5,694.5C 1068.14,714.422 1039.47,718.589 1008.5,707C 986.511,696.856 971.511,680.356 963.5,657.5C 933.188,663.417 909.355,653.75 892,628.5C 878.998,603.162 880.998,579.162 898,556.5C 906.382,546.61 916.882,540.277 929.5,537.5C 934.139,504.756 952.139,482.923 983.5,472C 994.752,470.155 1006.09,468.988 1017.5,468.5C 1038.01,435.578 1067.68,418.744 1106.5,418C 1108.67,423.003 1110.33,428.17 1111.5,433.5 Z"/></g>
<g><path style="opacity:1" fill="#232931" d="M 1094.5,385.5 C 1096.08,387.674 1097.58,390.007 1099,392.5C 1099.33,392.167 1099.67,391.833 1100,391.5C 1102.48,393.464 1102.65,395.297 1100.5,397C 1100.61,398.722 1101.11,398.888 1102,397.5C 1102.19,399.9 1102.69,402.234 1103.5,404.5C 1104.28,403.263 1105.28,402.263 1106.5,401.5C 1107.6,402.631 1107.27,403.465 1105.5,404C 1105.45,406.046 1105.78,408.213 1106.5,410.5C 1107.19,409.975 1107.69,409.308 1108,408.5C 1109.59,409.376 1111.09,410.376 1112.5,411.5C 1108.43,415.09 1107.93,419.09 1111,423.5C 1111.33,423.167 1111.67,422.833 1112,422.5C 1112.5,426.152 1112.67,429.818 1112.5,433.5C 1112.17,433.5 1111.83,433.5 1111.5,433.5C 1110.33,428.17 1108.67,423.003 1106.5,418C 1067.68,418.744 1038.01,435.578 1017.5,468.5C 1006.09,468.988 994.752,470.155 983.5,472C 952.139,482.923 934.139,504.756 929.5,537.5C 916.882,540.277 906.382,546.61 898,556.5C 880.998,579.162 878.998,603.162 892,628.5C 909.355,653.75 933.188,663.417 963.5,657.5C 971.511,680.356 986.511,696.856 1008.5,707C 1039.47,718.589 1068.14,714.422 1094.5,694.5C 1102.97,704.976 1112.97,713.642 1124.5,720.5C 1125.7,715.341 1127.04,710.341 1128.5,705.5C 1128.59,711.224 1127.59,716.724 1125.5,722C 1125.83,722.333 1126.17,722.667 1126.5,723C 1122.98,732.242 1120.31,741.742 1118.5,751.5C 1118.39,753.374 1119.06,754.874 1120.5,756C 1119.74,765.538 1118.57,765.705 1117,756.5C 1116.47,760.009 1115.47,763.342 1114,766.5C 1113.15,767.571 1112.31,768.571 1111.5,769.5C 1115.24,756.056 1118.9,742.556 1122.5,729C 1122.17,728.167 1121.83,727.333 1121.5,726.5C 1111.14,720.636 1102.14,713.136 1094.5,704C 1088.01,707.245 1081.34,710.578 1074.5,714C 1057.03,720.932 1039.36,722.098 1021.5,717.5C 992.055,710.729 971.388,693.395 959.5,665.5C 914.948,668.764 887.448,648.764 877,605.5C 875.087,569.972 890.421,545.305 923,531.5C 930.07,499.094 949.236,477.261 980.5,466C 991.296,463.109 1002.3,461.776 1013.5,462C 1035.05,430.382 1065.05,412.882 1103.5,409.5C 1100.48,401.468 1097.48,393.468 1094.5,385.5 Z"/></g>
<g><path style="opacity:1" fill="#3bb892" d="M 447.5,456.5 C 441.817,470.9 438.15,485.9 436.5,501.5C 431.687,529.932 437.187,556.266 453,580.5C 471.274,606.274 496.107,620.94 527.5,624.5C 535.243,626.71 543.243,628.377 551.5,629.5C 600.633,661.471 654.633,676.137 713.5,673.5C 738.668,718.487 752.835,766.82 756,818.5C 757.156,855.998 755.156,893.332 750,930.5C 747.041,955.921 742.041,980.921 735,1005.5C 723.221,1045.6 700.721,1078.1 667.5,1103C 636.328,1123.39 602.162,1135.89 565,1140.5C 559.882,1139.43 554.715,1138.76 549.5,1138.5C 514.588,1090.68 488.088,1038.34 470,981.5C 446.921,904.443 433.088,825.777 428.5,745.5C 425.137,670.76 426.137,596.093 431.5,521.5C 434.475,483.057 438.475,444.724 443.5,406.5C 446.335,400.337 449.002,394.17 451.5,388C 460.561,388.522 468.894,391.356 476.5,396.5C 464.675,415.483 455.008,435.483 447.5,456.5 Z"/></g>
<g><path style="opacity:1" fill="#232931" d="M 362.5,452.5 C 362.351,455.607 362.851,458.607 364,461.5C 364.383,460.944 364.883,460.611 365.5,460.5C 353.85,485.27 334.183,497.77 306.5,498C 290.551,516.14 270.551,523.973 246.5,521.5C 239.246,535.42 228.913,546.42 215.5,554.5C 213.334,554.579 211.334,555.246 209.5,556.5C 206.809,554.748 206.142,555.248 207.5,558C 198.398,561.879 189.065,565.213 179.5,568C 167.187,569.832 154.854,569.999 142.5,568.5C 135.768,567.7 129.435,565.7 123.5,562.5C 119.078,560.594 114.744,558.428 110.5,556C 105.281,551.939 99.948,548.106 94.5,544.5C 84.2473,548.73 73.5806,551.063 62.5,551.5C 60.6217,575.794 60.1217,600.127 61,624.5C 62.451,647.631 64.951,670.631 68.5,693.5C 66.2125,687.608 64.7125,681.275 64,674.5C 62.5399,676.972 61.5399,679.639 61,682.5C 60.0565,681.737 59.5565,680.737 59.5,679.5C 62.6104,672.341 63.1104,665.008 61,657.5C 60.1301,658.108 59.6301,658.941 59.5,660C 60.3943,661.396 61.0609,662.896 61.5,664.5C 60.3364,667.495 59.1697,670.495 58,673.5C 57.8333,670.667 57.6667,667.833 57.5,665C 59.1894,657.016 60.1894,648.849 60.5,640.5C 57.7578,610.788 57.9245,581.121 61,551.5C 62.4127,549.348 63.2461,547.014 63.5,544.5C 74.993,543.877 85.993,541.21 96.5,536.5C 129.843,566.93 166.843,572.097 207.5,552C 223.322,542.512 235.322,529.512 243.5,513C 268.053,517.928 288.053,510.595 303.5,491C 332.191,491.673 351.858,478.839 362.5,452.5 Z"/></g>
<g><path style="opacity:1" fill="#9bd4c1" d="M 443.5,406.5 C 438.475,444.724 434.475,483.057 431.5,521.5C 430.778,521.918 430.278,522.584 430,523.5C 429.667,527.167 429.333,530.833 429,534.5C 428.346,533.304 427.846,533.304 427.5,534.5C 428.133,538.281 428.467,542.115 428.5,546C 425.64,600.458 424.807,654.958 426,709.5C 426.13,721.704 426.964,733.704 428.5,745.5C 433.088,825.777 446.921,904.443 470,981.5C 488.088,1038.34 514.588,1090.68 549.5,1138.5C 548.833,1138.5 548.167,1138.5 547.5,1138.5C 510.291,1131.04 475.791,1117.04 444,1096.5C 442.173,1085.89 440.506,1075.22 439,1064.5C 434.724,1026.02 430.558,987.691 426.5,949.5C 422.412,904.553 419.079,859.553 416.5,814.5C 416.194,805.446 416.528,796.446 417.5,787.5C 416.896,784.102 416.063,780.769 415,777.5C 412.49,712.547 411.823,647.547 413,582.5C 413.333,583.5 413.667,584.5 414,585.5C 414,580.833 414,576.167 414,571.5C 415,570.5 416,569.5 417,568.5C 417.493,560.449 416.993,552.449 415.5,544.5C 416.374,533.509 417.041,522.509 417.5,511.5C 419.461,493.064 422.295,474.73 426,456.5C 429.375,438.872 435.208,422.205 443.5,406.5 Z"/></g>
<g><path style="opacity:1" fill="#262525" d="M 365.5,460.5 C 364.883,460.611 364.383,460.944 364,461.5C 362.851,458.607 362.351,455.607 362.5,452.5C 362.5,452.167 362.5,451.833 362.5,451.5C 363.268,450.737 363.768,449.737 364,448.5C 364.333,439.167 364.667,429.833 365,420.5C 368.171,429.556 369.005,438.889 367.5,448.5C 366.722,450.8 365.722,452.966 364.5,455C 365.233,456.766 365.567,458.599 365.5,460.5 Z"/></g>
<g><path style="opacity:1" fill="#fefefe" d="M 1111.5,433.5 C 1111.83,433.5 1112.17,433.5 1112.5,433.5C 1140.3,521.815 1145.63,611.481 1128.5,702.5C 1115.07,693.401 1104.4,681.734 1096.5,667.5C 1078.41,691.703 1054.41,700.87 1024.5,695C 993.704,684.6 977.537,663.1 976,630.5C 967.301,638.124 957.135,642.124 945.5,642.5C 913.209,638.369 898.376,620.036 901,587.5C 907.316,565.021 922.15,553.021 945.5,551.5C 944.044,535.985 947.877,521.985 957,509.5C 975.087,487.476 997.754,480.809 1025,489.5C 1041.7,452.383 1070.54,433.716 1111.5,433.5 Z"/></g>
<g><path style="opacity:1" fill="#68b0f7" d="M 362.5,451.5 C 362.5,451.833 362.5,452.167 362.5,452.5C 351.858,478.839 332.191,491.673 303.5,491C 288.053,510.595 268.053,517.928 243.5,513C 235.322,529.512 223.322,542.512 207.5,552C 166.843,572.097 129.843,566.93 96.5,536.5C 85.993,541.21 74.993,543.877 63.5,544.5C 64.0848,538.822 64.7514,533.155 65.5,527.5C 78.4257,526.525 90.0923,522.192 100.5,514.5C 121.941,542.709 149.941,552.542 184.5,544C 211.009,534.824 227.842,516.657 235,489.5C 247.595,498.401 261.095,499.901 275.5,494C 284.967,488.7 291.3,480.866 294.5,470.5C 317.216,478.727 334.049,472.06 345,450.5C 350.898,426.797 342.398,410.63 319.5,402C 313.5,401.333 307.5,401.333 301.5,402C 299.481,402.45 297.648,403.283 296,404.5C 304.591,369.694 295.091,340.861 267.5,318C 238.467,299.287 209.134,298.787 179.5,316.5C 172.175,308.499 163.508,302.499 153.5,298.5C 154.167,297.167 154.833,295.833 155.5,294.5C 158.158,291.197 160.825,287.864 163.5,284.5C 170.115,287.805 176.449,291.472 182.5,295.5C 225.959,278.741 263.459,287.408 295,321.5C 309.512,339.837 316.512,360.837 316,384.5C 340.57,389.069 356.237,403.402 363,427.5C 363.698,435.528 363.532,443.528 362.5,451.5 Z"/></g>
<g><path style="opacity:1" fill="#fefefe" d="M 153.5,298.5 C 163.508,302.499 172.175,308.499 179.5,316.5C 209.134,298.787 238.467,299.287 267.5,318C 295.091,340.861 304.591,369.694 296,404.5C 297.648,403.283 299.481,402.45 301.5,402C 307.5,401.333 313.5,401.333 319.5,402C 342.398,410.63 350.898,426.797 345,450.5C 334.049,472.06 317.216,478.727 294.5,470.5C 291.3,480.866 284.967,488.7 275.5,494C 261.095,499.901 247.595,498.401 235,489.5C 227.842,516.657 211.009,534.824 184.5,544C 149.941,552.542 121.941,542.709 100.5,514.5C 90.0923,522.192 78.4257,526.525 65.5,527.5C 76.7961,443.961 106.129,367.628 153.5,298.5 Z"/></g>
<g><path style="opacity:1" fill="#232932" d="M 167.5,277.5 C 167.369,278.376 167.702,279.043 168.5,279.5C 173.731,281.906 178.565,284.906 183,288.5C 227.002,272.331 265.335,280.998 298,314.5C 313.944,333.158 322.111,354.825 322.5,379.5C 349.113,385.946 364.947,402.613 370,429.5C 371.512,440.414 370.012,450.747 365.5,460.5C 365.567,458.599 365.233,456.766 364.5,455C 365.722,452.966 366.722,450.8 367.5,448.5C 369.005,438.889 368.171,429.556 365,420.5C 364.667,429.833 364.333,439.167 364,448.5C 363.768,449.737 363.268,450.737 362.5,451.5C 363.532,443.528 363.698,435.528 363,427.5C 356.237,403.402 340.57,389.069 316,384.5C 316.512,360.837 309.512,339.837 295,321.5C 263.459,287.408 225.959,278.741 182.5,295.5C 176.449,291.472 170.115,287.805 163.5,284.5C 160.825,287.864 158.158,291.197 155.5,294.5C 155.617,292.516 154.95,290.85 153.5,289.5C 154.105,287.519 155.105,287.185 156.5,288.5C 157.056,284.378 158.722,280.878 161.5,278C 161.167,277.667 160.833,277.333 160.5,277C 162.602,276.717 164.269,277.55 165.5,279.5C 166.182,278.757 166.849,278.091 167.5,277.5 Z"/></g>
<g><path style="opacity:1" fill="#232b35" d="M 975.5,214.5 C 977.711,215.037 979.711,216.037 981.5,217.5C 983.872,216.332 986.205,216.498 988.5,218C 989.973,218.71 990.64,219.876 990.5,221.5C 989.5,221.5 988.5,221.5 987.5,221.5C 989.684,228.516 994.35,233.016 1001.5,235C 1000.14,237.129 1000.47,237.629 1002.5,236.5C 1003.29,241.453 1005.96,244.786 1010.5,246.5C 1010.17,247.167 1009.83,247.833 1009.5,248.5C 1011.3,249.695 1012.3,251.362 1012.5,253.5C 1000.5,240.171 988.171,227.171 975.5,214.5 Z"/></g>
<g><path style="opacity:1" fill="#6ea9e3" d="M 753.5,84.5 C 766.344,87.892 779.01,91.892 791.5,96.5C 803.736,101.284 815.736,106.617 827.5,112.5C 824.438,112.156 821.438,111.489 818.5,110.5C 814.563,107.064 809.897,105.231 804.5,105C 800.81,103.051 796.976,101.218 793,99.5C 792.667,99.8333 792.333,100.167 792,100.5C 784.132,94.3778 775.299,91.3778 765.5,91.5C 766.506,92.3957 766.506,93.0623 765.5,93.5C 762.539,92.8169 762.205,91.9836 764.5,91C 763.167,90.3333 763.167,89.6667 764.5,89C 761.342,87.5305 758.009,86.5305 754.5,86C 753.944,85.6174 753.611,85.1174 753.5,84.5 Z"/></g>
<g><path style="opacity:1" fill="#1f2f41" d="M 750.5,82.5 C 753.522,82.804 756.522,83.304 759.5,84C 768.93,87.0176 778.263,90.0176 787.5,93C 789.319,93.7403 790.652,94.9069 791.5,96.5C 779.01,91.892 766.344,87.892 753.5,84.5C 752.5,83.8333 751.5,83.1667 750.5,82.5 Z"/></g>
<g><path style="opacity:1" fill="#65b0fb" d="M 650.5,64.5 C 665.625,65.2656 680.625,67.0989 695.5,70C 711.522,73.4377 727.522,76.9377 743.5,80.5C 745.515,81.9238 747.848,82.5905 750.5,82.5C 751.5,83.1667 752.5,83.8333 753.5,84.5C 753.611,85.1174 753.944,85.6174 754.5,86C 758.009,86.5305 761.342,87.5305 764.5,89C 763.167,89.6667 763.167,90.3333 764.5,91C 762.205,91.9836 762.539,92.8169 765.5,93.5C 766.506,93.0623 766.506,92.3957 765.5,91.5C 775.299,91.3778 784.132,94.3778 792,100.5C 792.333,100.167 792.667,99.8333 793,99.5C 796.976,101.218 800.81,103.051 804.5,105C 809.897,105.231 814.563,107.064 818.5,110.5C 821.438,111.489 824.438,112.156 827.5,112.5C 882.72,138.098 932.054,172.098 975.5,214.5C 988.171,227.171 1000.5,240.171 1012.5,253.5C 1045.37,293.877 1072.7,337.877 1094.5,385.5C 1097.48,393.468 1100.48,401.468 1103.5,409.5C 1065.05,412.882 1035.05,430.382 1013.5,462C 1002.3,461.776 991.296,463.109 980.5,466C 949.236,477.261 930.07,499.094 923,531.5C 890.421,545.305 875.087,569.972 877,605.5C 887.448,648.764 914.948,668.764 959.5,665.5C 971.388,693.395 992.055,710.729 1021.5,717.5C 1039.36,722.098 1057.03,720.932 1074.5,714C 1081.34,710.578 1088.01,707.245 1094.5,704C 1102.14,713.136 1111.14,720.636 1121.5,726.5C 1121.83,727.333 1122.17,728.167 1122.5,729C 1118.9,742.556 1115.24,756.056 1111.5,769.5C 1089.74,832.052 1058.4,889.052 1017.5,940.5C 1011.49,946.51 1005.82,952.843 1000.5,959.5C 999.662,959.842 999.328,960.508 999.5,961.5C 954.349,1010.34 902.349,1050.01 843.5,1080.5C 838.833,1082.5 834.167,1084.5 829.5,1086.5C 828.209,1085.22 826.209,1084.55 823.5,1084.5C 822.423,1084.85 822.089,1082.68 822.5,1078C 824.103,1045.07 825.603,1012.23 827,979.5C 827.197,976.308 828.03,973.308 829.5,970.5C 828.833,969.5 828.167,968.5 827.5,967.5C 828.663,897.541 828.83,827.541 828,757.5C 827.83,746.659 827.33,735.992 826.5,725.5C 826.794,710.308 826.461,695.142 825.5,680C 827.15,676.986 827.65,673.819 827,670.5C 825.984,671.634 825.317,671.301 825,669.5C 823.898,652.84 822.898,636.173 822,619.5C 821.617,618.944 821.117,618.611 820.5,618.5C 820.5,618.167 820.5,617.833 820.5,617.5C 819.948,602.821 819.115,588.155 818,573.5C 815.768,561.993 814.434,550.326 814,538.5C 813.154,534.612 811.987,530.945 810.5,527.5C 806.69,505.985 802.857,484.319 799,462.5C 796.604,451.901 793.77,441.568 790.5,431.5C 785.345,409.204 777.512,387.871 767,367.5C 760.214,353.91 751.047,342.243 739.5,332.5C 739.322,331.305 738.989,330.138 738.5,329C 741.636,317.578 742.969,305.911 742.5,294C 742.495,288.124 741.829,282.624 740.5,277.5C 738.119,263.333 733.286,250 726,237.5C 724.054,234.58 721.887,231.913 719.5,229.5C 716.827,224.313 713.16,219.813 708.5,216C 694.947,204.145 679.613,195.145 662.5,189C 661.043,175.57 654.71,165.237 643.5,158C 620.54,152.325 606.54,161.158 601.5,184.5C 577.796,186.676 556.463,194.843 537.5,209C 512.44,231.952 498.107,260.452 494.5,294.5C 478.139,283.322 460.139,276.155 440.5,273C 424.409,270.224 411.742,275.391 402.5,288.5C 400.922,289.066 399.588,290.066 398.5,291.5C 393.738,301.953 390.071,312.787 387.5,324C 388.527,334.44 390.194,344.773 392.5,355C 392.039,357.199 391.873,359.366 392,361.5C 393.113,360.289 394.28,360.289 395.5,361.5C 396.452,363.045 396.785,364.712 396.5,366.5C 398.514,366.392 400.18,367.058 401.5,368.5C 409.498,377.5 419.498,382.833 431.5,384.5C 417.766,433.688 408.1,483.688 402.5,534.5C 401.218,541.339 400.052,548.339 399,555.5C 397.05,576.913 394.883,598.246 392.5,619.5C 391.71,620.609 391.21,621.942 391,623.5C 389.274,644.448 388.274,665.448 388,686.5C 387.107,685.289 386.274,685.289 385.5,686.5C 387.451,694.767 387.451,703.1 385.5,711.5C 387.701,733.628 388.034,755.795 386.5,778C 386.667,779.5 386.833,781 387,782.5C 387.333,780.167 387.667,777.833 388,775.5C 388.169,788.34 388.669,801.007 389.5,813.5C 391.106,840.516 392.939,867.516 395,894.5C 395.383,895.056 395.883,895.389 396.5,895.5C 399.292,919.467 401.958,943.467 404.5,967.5C 405.67,980.539 407.17,993.539 409,1006.5C 409.685,1010.54 410.852,1014.21 412.5,1017.5C 415.32,1031.42 417.82,1045.42 420,1059.5C 421.749,1068.71 423.916,1077.71 426.5,1086.5C 427.509,1094.04 428.842,1101.54 430.5,1109C 430.167,1109.83 429.833,1110.67 429.5,1111.5C 424.686,1109.23 419.686,1107.56 414.5,1106.5C 350.361,1082.28 292.694,1047.61 241.5,1002.5C 149.362,919.263 91.695,816.263 68.5,693.5C 64.951,670.631 62.451,647.631 61,624.5C 60.1217,600.127 60.6217,575.794 62.5,551.5C 73.5806,551.063 84.2473,548.73 94.5,544.5C 99.948,548.106 105.281,551.939 110.5,556C 114.744,558.428 119.078,560.594 123.5,562.5C 125.163,564.533 127.163,566.366 129.5,568C 153.588,574.987 177.588,573.821 201.5,564.5C 203.175,564.132 204.175,563.132 204.5,561.5C 208.336,559.416 212.003,557.083 215.5,554.5C 228.913,546.42 239.246,535.42 246.5,521.5C 270.551,523.973 290.551,516.14 306.5,498C 334.183,497.77 353.85,485.27 365.5,460.5C 370.012,450.747 371.512,440.414 370,429.5C 364.947,402.613 349.113,385.946 322.5,379.5C 322.111,354.825 313.944,333.158 298,314.5C 265.335,280.998 227.002,272.331 183,288.5C 178.565,284.906 173.731,281.906 168.5,279.5C 167.702,279.043 167.369,278.376 167.5,277.5C 254.665,164.367 368.998,94.6999 510.5,68.5C 514.119,67.7564 517.785,67.423 521.5,67.5C 538.712,67.1681 555.712,65.6681 572.5,63C 598.543,62.3771 624.543,62.8771 650.5,64.5 Z"/></g>
<g><path style="opacity:1" fill="#1a2638" d="M 390.5,789.5 C 391.117,789.611 391.617,789.944 392,790.5C 392.5,805.496 392.667,820.496 392.5,835.5C 390.975,820.36 390.309,805.026 390.5,789.5 Z"/></g>
<g><path style="opacity:1" fill="#68a7e6" d="M 392.5,619.5 C 389.846,676.131 388.846,732.798 389.5,789.5C 389.5,797.5 389.5,805.5 389.5,813.5C 388.669,801.007 388.169,788.34 388,775.5C 387.667,777.833 387.333,780.167 387,782.5C 386.833,781 386.667,779.5 386.5,778C 388.034,755.795 387.701,733.628 385.5,711.5C 387.451,703.1 387.451,694.767 385.5,686.5C 386.274,685.289 387.107,685.289 388,686.5C 388.274,665.448 389.274,644.448 391,623.5C 391.21,621.942 391.71,620.609 392.5,619.5 Z"/></g>
<g><path style="opacity:1" fill="#262626" d="M 1021.5,717.5 C 1021.39,716.883 1021.06,716.383 1020.5,716C 1022.17,715.667 1023.83,715.333 1025.5,715C 1038.32,714.022 1050.99,714.356 1063.5,716C 1059.97,716.622 1056.47,716.455 1053,715.5C 1042.72,718.779 1032.22,719.445 1021.5,717.5 Z"/></g>
<g><path style="opacity:1" fill="#182537" d="M 402.5,534.5 C 402.07,537.862 403.07,540.695 405.5,543C 404.747,544.487 403.914,544.654 403,543.5C 402.808,545.577 402.308,547.577 401.5,549.5C 397.744,578.646 394.91,607.979 393,637.5C 390.781,688.118 389.947,738.785 390.5,789.5C 390.167,789.5 389.833,789.5 389.5,789.5C 388.846,732.798 389.846,676.131 392.5,619.5C 394.883,598.246 397.05,576.913 399,555.5C 400.052,548.339 401.218,541.339 402.5,534.5 Z"/></g>
<g><path style="opacity:1" fill="#81d3b9" d="M 431.5,521.5 C 426.137,596.093 425.137,670.76 428.5,745.5C 426.964,733.704 426.13,721.704 426,709.5C 424.807,654.958 425.64,600.458 428.5,546C 428.467,542.115 428.133,538.281 427.5,534.5C 427.846,533.304 428.346,533.304 429,534.5C 429.333,530.833 429.667,527.167 430,523.5C 430.278,522.584 430.778,521.918 431.5,521.5 Z"/></g>
<g><path style="opacity:1" fill="#6ca9e6" d="M 820.5,618.5 C 821.117,618.611 821.617,618.944 822,619.5C 822.898,636.173 823.898,652.84 825,669.5C 825.317,671.301 825.984,671.634 827,670.5C 827.65,673.819 827.15,676.986 825.5,680C 826.461,695.142 826.794,710.308 826.5,725.5C 824.753,694.485 822.753,663.485 820.5,632.5C 820.5,627.833 820.5,623.167 820.5,618.5 Z"/></g>
<g><path style="opacity:1" fill="#9dcabb" d="M 417.5,511.5 C 417.041,522.509 416.374,533.509 415.5,544.5C 416.993,552.449 417.493,560.449 417,568.5C 416,569.5 415,570.5 414,571.5C 414,576.167 414,580.833 414,585.5C 413.667,584.5 413.333,583.5 413,582.5C 411.823,647.547 412.49,712.547 415,777.5C 416.063,780.769 416.896,784.102 417.5,787.5C 416.528,796.446 416.194,805.446 416.5,814.5C 415.833,808.833 415.167,803.167 414.5,797.5C 414.763,793.4 414.43,789.4 413.5,785.5C 410.778,722.194 409.945,658.861 411,595.5C 411.485,576.446 412.652,557.446 414.5,538.5C 415.122,529.318 416.122,520.318 417.5,511.5 Z"/></g>
<g><path style="opacity:1" fill="#122b22" d="M 593.5,634.5 C 622.067,636.447 650.734,637.447 679.5,637.5C 650.746,639.304 622.08,638.304 593.5,634.5 Z"/></g>
<g><path style="opacity:1" fill="#1d2522" d="M 414.5,538.5 C 412.652,557.446 411.485,576.446 411,595.5C 409.945,658.861 410.778,722.194 413.5,785.5C 412.546,778.331 411.712,770.998 411,763.5C 410.676,761.431 409.842,761.098 408.5,762.5C 407.373,760.731 407.873,759.397 410,758.5C 410.667,744.833 410.667,731.167 410,717.5C 409.086,718.654 408.253,718.487 407.5,717C 408.134,696.25 408.468,675.25 408.5,654C 408.333,634.833 408.167,615.667 408,596.5C 407.727,594.899 407.227,593.399 406.5,592C 407,591.5 407.5,591 408,590.5C 408.667,593.167 409.333,593.167 410,590.5C 410.445,575.145 411.279,559.812 412.5,544.5C 412.539,542.048 413.206,540.048 414.5,538.5 Z"/></g>
<g><path style="opacity:1" fill="#162f27" d="M 527.5,624.5 C 549.247,626.849 570.58,630.183 591.5,634.5C 578.176,632.837 564.843,631.17 551.5,629.5C 543.243,628.377 535.243,626.71 527.5,624.5 Z"/></g>
<g><path style="opacity:1" fill="#392828" d="M 736.5,611.5 C 734.916,612.769 733.083,613.769 731,614.5C 703.338,620.481 675.505,622.148 647.5,619.5C 677.575,620.917 707.242,618.251 736.5,611.5 Z"/></g>
<g><path style="opacity:1" fill="#6fa9e5" d="M 810.5,527.5 C 811.987,530.945 813.154,534.612 814,538.5C 814.434,550.326 815.768,561.993 818,573.5C 819.115,588.155 819.948,602.821 820.5,617.5C 818.269,599.985 816.269,582.319 814.5,564.5C 813.577,552.119 812.244,539.786 810.5,527.5 Z"/></g>
<g><path style="opacity:1" fill="#6faae4" d="M 204.5,561.5 C 204.175,563.132 203.175,564.132 201.5,564.5C 177.588,573.821 153.588,574.987 129.5,568C 127.163,566.366 125.163,564.533 123.5,562.5C 129.435,565.7 135.768,567.7 142.5,568.5C 163.812,572.9 184.479,570.567 204.5,561.5 Z"/></g>
<g><path style="opacity:1" fill="#1e2e3f" d="M 215.5,554.5 C 212.003,557.083 208.336,559.416 204.5,561.5C 184.479,570.567 163.812,572.9 142.5,568.5C 154.854,569.999 167.187,569.832 179.5,568C 189.065,565.213 198.398,561.879 207.5,558C 206.142,555.248 206.809,554.748 209.5,556.5C 211.334,555.246 213.334,554.579 215.5,554.5 Z"/></g>
<g><path style="opacity:1" fill="#20242f" d="M 790.5,431.5 C 793.77,441.568 796.604,451.901 799,462.5C 802.857,484.319 806.69,505.985 810.5,527.5C 812.244,539.786 813.577,552.119 814.5,564.5C 813.698,563.048 813.198,561.382 813,559.5C 812.29,560.973 811.124,561.64 809.5,561.5C 810.535,557.931 811.035,553.931 811,549.5C 809.619,547.365 808.619,545.032 808,542.5C 805.962,546.525 804.962,550.858 805,555.5C 804.793,551.911 804.293,548.411 803.5,545C 804.337,543.989 804.67,542.822 804.5,541.5C 806.167,541.5 807.833,541.5 809.5,541.5C 808.719,530.475 807.719,519.475 806.5,508.5C 805.5,508.5 804.5,508.5 803.5,508.5C 804.01,505.612 803.344,503.279 801.5,501.5C 800.209,500.527 800.209,499.527 801.5,498.5C 800.23,497.712 799.23,496.712 798.5,495.5C 799.88,495.935 800.88,495.102 801.5,493C 800.541,491.293 799.875,489.459 799.5,487.5C 800.542,483.201 800.709,478.868 800,474.5C 798.756,471.362 798.089,468.028 798,464.5C 797.164,462.158 795.83,460.158 794,458.5C 793.871,449.318 792.704,440.318 790.5,431.5 Z"/></g>
<g><path style="opacity:1" fill="#1a2621" d="M 785.5,493.5 C 792.13,520.507 792.13,547.507 785.5,574.5C 786.609,564.177 787.609,553.844 788.5,543.5C 788.167,540.167 787.833,536.833 787.5,533.5C 786.833,534.167 786.167,534.833 785.5,535.5C 785.167,535.167 784.833,534.833 784.5,534.5C 785.088,529.433 786.088,524.433 787.5,519.5C 786.612,510.849 785.945,502.182 785.5,493.5 Z"/></g>
<g><path style="opacity:1" fill="#192a24" d="M 447.5,456.5 C 446.179,462.129 445.179,467.796 444.5,473.5C 445.552,473.351 446.552,473.517 447.5,474C 445.067,474.766 443.234,476.266 442,478.5C 441.064,486.705 439.231,494.372 436.5,501.5C 438.15,485.9 441.817,470.9 447.5,456.5 Z"/></g>
<g><path style="opacity:1" fill="#152c24" d="M 761.5,427.5 C 766.968,437.439 771.635,447.773 775.5,458.5C 774.542,458.047 773.708,457.381 773,456.5C 771.916,451.118 769.583,446.451 766,442.5C 764.22,437.521 762.72,432.521 761.5,427.5 Z"/></g>
<g><path style="opacity:1" fill="#fbf1f0" d="M 505.5,397.5 C 488.912,424.954 478.412,454.621 474,486.5C 467.137,535.956 483.304,575.789 522.5,606C 521.552,606.483 520.552,606.649 519.5,606.5C 453.764,573.473 434.93,522.806 463,454.5C 472.55,433.88 484.717,415.046 499.5,398C 501.473,397.505 503.473,397.338 505.5,397.5 Z"/></g>
<g><path style="opacity:1" fill="#dda8a9" d="M 694.5,370.5 C 704.46,374.816 713.46,380.649 721.5,388C 742.735,412.63 757.568,440.796 766,472.5C 774.682,502.71 777.015,533.377 773,564.5C 770.634,578.967 764.467,591.467 754.5,602C 748.85,605.99 742.85,609.157 736.5,611.5C 707.242,618.251 677.575,620.917 647.5,619.5C 636.649,619.343 625.983,618.676 615.5,617.5C 647.236,615.567 677.236,607.4 705.5,593C 740.479,572.543 755.979,542.043 752,501.5C 747.039,470.283 736.705,440.95 721,413.5C 712.145,399.111 703.311,384.777 694.5,370.5 Z"/></g>
<g><path style="opacity:1" fill="#f7cbca" d="M 694.5,370.5 C 703.311,384.777 712.145,399.111 721,413.5C 736.705,440.95 747.039,470.283 752,501.5C 755.979,542.043 740.479,572.543 705.5,593C 677.236,607.4 647.236,615.567 615.5,617.5C 583.131,615.882 551.131,612.215 519.5,606.5C 520.552,606.649 521.552,606.483 522.5,606C 483.304,575.789 467.137,535.956 474,486.5C 478.412,454.621 488.912,424.954 505.5,397.5C 550.017,398.169 593.35,391.669 635.5,378C 651.119,373.814 666.952,370.981 683,369.5C 686.883,369.572 690.717,369.905 694.5,370.5 Z"/></g>
<g><path style="opacity:1" fill="#251f20" d="M 675.5,537.5 C 682.985,537.483 686.485,541.15 686,548.5C 659.158,573.329 627.658,582.162 591.5,575C 575.302,571.714 560.136,565.881 546,557.5C 543.766,550.75 546.099,546.75 553,545.5C 566.454,552.471 580.621,557.637 595.5,561C 619.905,565.519 642.572,561.185 663.5,548C 667.759,544.718 671.759,541.218 675.5,537.5 Z"/></g>
<g><path style="opacity:1" fill="#261f20" d="M 612.5,420.5 C 615.272,420.22 617.772,420.887 620,422.5C 626.746,440.303 625.746,457.636 617,474.5C 611.623,480.208 606.623,486.208 602,492.5C 592.095,508.452 595.928,519.619 613.5,526C 618.077,527.644 622.744,528.978 627.5,530C 632.191,536.286 630.858,541.12 623.5,544.5C 612.657,542.242 602.657,538.075 593.5,532C 580.007,519.353 577.841,504.853 587,488.5C 591.855,479.973 597.855,472.307 605,465.5C 610.502,452.928 611.002,440.095 606.5,427C 607.326,423.676 609.326,421.51 612.5,420.5 Z"/></g>
<g><path style="opacity:1" fill="#241f20" d="M 524.5,407.5 C 542.986,407.161 554.82,415.827 560,433.5C 563.918,450.674 559.418,465.174 546.5,477C 523.089,486.545 507.923,479.045 501,454.5C 496.801,432.498 504.634,416.832 524.5,407.5 Z"/></g>
<g><path style="opacity:1" fill="#fbfbfb" d="M 520.5,434.5 C 532.624,434.355 537.457,440.355 535,452.5C 532.734,459.049 528.234,461.549 521.5,460C 514.514,455.567 512.347,449.4 515,441.5C 516.666,439.004 518.5,436.671 520.5,434.5 Z"/></g>
<g><path style="opacity:1" fill="#241f20" d="M 689.5,407.5 C 709.657,407.481 721.49,417.481 725,437.5C 727.648,454.13 722.481,467.63 709.5,478C 685.297,486.167 670.464,477.667 665,452.5C 662.376,436.8 666.876,423.634 678.5,413C 681.99,410.588 685.657,408.755 689.5,407.5 Z"/></g>
<g><path style="opacity:1" fill="#f9f9f9" d="M 686.5,434.5 C 693.617,433.14 698.451,435.807 701,442.5C 702.754,449.915 700.588,455.748 694.5,460C 687.247,461.453 682.414,458.619 680,451.5C 678.544,444.357 680.711,438.69 686.5,434.5 Z"/></g>
<g><path style="opacity:1" fill="#18283c" d="M 393.5,310.5 C 392.449,321.811 392.283,333.145 393,344.5C 394.219,348.903 395.386,353.236 396.5,357.5C 393.234,352.063 391.401,346.063 391,339.5C 389.92,329.524 390.754,319.857 393.5,310.5 Z"/></g>
<g><path style="opacity:1" fill="#6eace9" d="M 402.5,288.5 C 398.33,295.341 395.33,302.675 393.5,310.5C 390.754,319.857 389.92,329.524 391,339.5C 391.401,346.063 393.234,352.063 396.5,357.5C 397.711,361.377 399.378,365.043 401.5,368.5C 400.18,367.058 398.514,366.392 396.5,366.5C 396.785,364.712 396.452,363.045 395.5,361.5C 394.28,360.289 393.113,360.289 392,361.5C 391.873,359.366 392.039,357.199 392.5,355C 390.194,344.773 388.527,334.44 387.5,324C 390.071,312.787 393.738,301.953 398.5,291.5C 399.588,290.066 400.922,289.066 402.5,288.5 Z"/></g>
<g><path style="opacity:1" fill="#fdfdfd" d="M 628.5,355.5 C 630.914,356.406 631.747,358.072 631,360.5C 629.127,362.709 626.96,364.542 624.5,366C 608.692,372.035 592.359,376.035 575.5,378C 538.212,382.787 500.878,383.454 463.5,380C 444.081,377.54 427.581,369.373 414,355.5C 404.994,342.097 403.161,327.764 408.5,312.5C 414.43,309.301 420.764,307.301 427.5,306.5C 434.497,307.332 440.83,309.832 446.5,314C 478.618,342.498 516.285,358.165 559.5,361C 570.167,361.667 580.833,361.667 591.5,361C 604.013,360.025 616.347,358.191 628.5,355.5 Z"/></g>
<g><path style="opacity:1" fill="#6faae6" d="M 740.5,277.5 C 741.829,282.624 742.495,288.124 742.5,294C 742.969,305.911 741.636,317.578 738.5,329C 738.989,330.138 739.322,331.305 739.5,332.5C 737.804,332.315 736.471,331.481 735.5,330C 737.33,325.018 738.33,319.852 738.5,314.5C 739.29,313.391 739.79,312.058 740,310.5C 740.5,299.505 740.667,288.505 740.5,277.5 Z"/></g>
<g><path style="opacity:1" fill="#dcdbda" d="M 628.5,355.5 C 616.347,358.191 604.013,360.025 591.5,361C 580.833,361.667 570.167,361.667 559.5,361C 516.285,358.165 478.618,342.498 446.5,314C 440.83,309.832 434.497,307.332 427.5,306.5C 420.764,307.301 414.43,309.301 408.5,312.5C 417.818,287.673 433.818,282.506 456.5,297C 473.691,308.52 490.024,321.186 505.5,335C 510.942,339.054 516.942,342.054 523.5,344C 537.289,347.743 551.289,350.409 565.5,352C 586.65,353.332 607.65,354.499 628.5,355.5 Z"/></g>
<g><path style="opacity:1" fill="#1f212a" d="M 719.5,229.5 C 721.887,231.913 724.054,234.58 726,237.5C 733.286,250 738.119,263.333 740.5,277.5C 740.667,288.505 740.5,299.505 740,310.5C 739.79,312.058 739.29,313.391 738.5,314.5C 738.989,308.491 738.323,302.658 736.5,297C 737.609,290.538 737.775,284.038 737,277.5C 736,278.833 735,280.167 734,281.5C 733.027,279.053 732.194,276.553 731.5,274C 732.042,269.786 733.542,269.619 736,273.5C 736.329,266.49 734.995,259.823 732,253.5C 731.751,254.624 731.251,255.624 730.5,256.5C 729.964,254.031 728.964,251.864 727.5,250C 728.38,248.644 728.714,247.144 728.5,245.5C 723.848,244.519 722.514,241.852 724.5,237.5C 723.5,237.5 722.5,237.5 721.5,237.5C 721.713,234.549 721.046,231.882 719.5,229.5 Z"/></g>
<g><path style="opacity:1" fill="#dcdcda" d="M 654.5,202.5 C 685.311,210.476 705.144,229.81 714,260.5C 718.709,282.316 719.709,304.316 717,326.5C 677.832,338.028 637.998,342.361 597.5,339.5C 618.078,341.804 637.411,337.971 655.5,328C 668.71,319.425 676.21,307.258 678,291.5C 679.654,271.767 676.654,252.767 669,234.5C 664.824,223.446 659.991,212.779 654.5,202.5 Z"/></g>
<g><path style="opacity:1" fill="#fefefe" d="M 654.5,202.5 C 659.991,212.779 664.824,223.446 669,234.5C 676.654,252.767 679.654,271.767 678,291.5C 676.21,307.258 668.71,319.425 655.5,328C 637.411,337.971 618.078,341.804 597.5,339.5C 574.815,338.886 552.815,334.719 531.5,327C 519.757,323.257 512.091,315.591 508.5,304C 513.216,277.828 523.716,254.328 540,233.5C 560.517,211.161 586.017,199.495 616.5,198.5C 629.289,198.84 641.956,200.174 654.5,202.5 Z"/></g>
<g><path style="opacity:1" fill="#dbdbd9" d="M 632.5,165.5 C 645.809,167.817 652.809,175.817 653.5,189.5C 650.627,189.198 647.961,188.531 645.5,187.5C 641.226,180.204 636.893,172.871 632.5,165.5 Z"/></g>
<g><path style="opacity:1" fill="#fcfbfb" d="M 632.5,165.5 C 636.893,172.871 641.226,180.204 645.5,187.5C 633.527,185.619 621.527,184.952 609.5,185.5C 612.315,173.005 619.982,166.339 632.5,165.5 Z"/></g>
<g><path style="opacity:1" fill="#1f2d3c" d="M 743.5,80.5 C 727.522,76.9377 711.522,73.4377 695.5,70C 680.625,67.0989 665.625,65.2656 650.5,64.5C 623.054,61.6567 595.387,60.8234 567.5,62C 551.937,63.1539 536.604,64.9872 521.5,67.5C 517.785,67.423 514.119,67.7564 510.5,68.5C 510.611,67.8826 510.944,67.3826 511.5,67C 525.056,64.5686 538.723,63.0686 552.5,62.5C 552.351,61.448 552.517,60.448 553,59.5C 583.273,60.8037 613.607,60.8037 644,59.5C 645.5,59.8333 647,60.1667 648.5,60.5C 648.291,61.086 647.957,61.586 647.5,62C 652.887,62.7845 658.22,62.6178 663.5,61.5C 666.028,62.4978 666.028,63.3311 663.5,64C 688.534,66.7746 713.2,71.108 737.5,77C 737.167,77.3333 736.833,77.6667 736.5,78C 739.361,77.9698 741.695,78.8031 743.5,80.5 Z"/></g>
<g><path style="opacity:1" fill="#6ca6df" d="M 650.5,64.5 C 624.543,62.8771 598.543,62.3771 572.5,63C 555.712,65.6681 538.712,67.1681 521.5,67.5C 536.604,64.9872 551.937,63.1539 567.5,62C 595.387,60.8234 623.054,61.6567 650.5,64.5 Z"/></g>
<g><path style="opacity:1" fill="#1a283b" d="M 820.5,632.5 C 822.753,663.485 824.753,694.485 826.5,725.5C 827.518,791.164 827.684,856.83 827,922.5C 826.552,962.368 825.052,1002.03 822.5,1041.5C 823.391,1000.48 824.558,959.482 826,918.5C 826.667,868.833 826.667,819.167 826,769.5C 823.59,723.867 821.757,678.2 820.5,632.5 Z"/></g>
<g><path style="opacity:1" fill="#71a5d9" d="M 389.5,789.5 C 389.833,789.5 390.167,789.5 390.5,789.5C 390.309,805.026 390.975,820.36 392.5,835.5C 392.648,852.409 393.981,869.076 396.5,885.5C 396.5,888.833 396.5,892.167 396.5,895.5C 395.883,895.389 395.383,895.056 395,894.5C 392.939,867.516 391.106,840.516 389.5,813.5C 389.5,805.5 389.5,797.5 389.5,789.5 Z"/></g>
<g><path style="opacity:1" fill="#1e2825" d="M 414.5,797.5 C 415.167,803.167 415.833,808.833 416.5,814.5C 419.079,859.553 422.412,904.553 426.5,949.5C 425.685,950.429 424.852,951.429 424,952.5C 424.037,950.072 424.204,947.572 424.5,945C 421.57,917.56 419.403,890.06 418,862.5C 415.877,856.632 415.377,850.466 416.5,844C 414.804,828.567 414.137,813.067 414.5,797.5 Z"/></g>
<g><path style="opacity:1" fill="#203349" d="M 1017.5,940.5 C 1014.84,945.129 1011.67,949.462 1008,953.5C 1005.89,956.118 1003.39,958.118 1000.5,959.5C 1005.82,952.843 1011.49,946.51 1017.5,940.5 Z"/></g>
<g><path style="opacity:1" fill="#1a273a" d="M 396.5,885.5 C 399.571,909.169 402.404,933.169 405,957.5C 405.944,962.567 406.944,967.567 408,972.5C 408.499,977.155 408.666,981.821 408.5,986.5C 407.326,980.137 405.993,973.804 404.5,967.5C 401.958,943.467 399.292,919.467 396.5,895.5C 396.5,892.167 396.5,888.833 396.5,885.5 Z"/></g>
<g><path style="opacity:1" fill="#6fa7df" d="M 404.5,967.5 C 405.993,973.804 407.326,980.137 408.5,986.5C 409.105,995.74 410.438,1004.74 412.5,1013.5C 412.5,1014.83 412.5,1016.17 412.5,1017.5C 410.852,1014.21 409.685,1010.54 409,1006.5C 407.17,993.539 405.67,980.539 404.5,967.5 Z"/></g>
<g><path style="opacity:1" fill="#18181a" d="M 241.5,1002.5 C 292.694,1047.61 350.361,1082.28 414.5,1106.5C 417.231,1108.2 420.231,1109.53 423.5,1110.5C 423.833,1112.5 424.167,1114.5 424.5,1116.5C 426.071,1113.91 428.404,1112.91 431.5,1113.5C 431.626,1116.59 433.293,1118.43 436.5,1119C 453.474,1125.82 470.474,1132.65 487.5,1139.5C 394.432,1120.8 312.099,1080.46 240.5,1018.5C 239.67,1013.01 240.003,1007.67 241.5,1002.5 Z"/></g>
<g><path style="opacity:1" fill="#18181a" d="M 999.5,961.5 C 999.489,963.017 998.823,964.184 997.5,965C 1000.89,966.74 1004.22,968.573 1007.5,970.5C 1005.67,972.833 1003.83,975.167 1002,977.5C 944.507,1038.19 877.007,1083.86 799.5,1114.5C 797.488,1115.01 795.488,1115.18 793.5,1115C 802.86,1110.32 811.86,1105.16 820.5,1099.5C 820.5,1097.17 820.5,1094.83 820.5,1092.5C 824.151,1091.33 827.817,1090 831.5,1088.5C 835.279,1090.11 837.612,1088.77 838.5,1084.5C 840.776,1083.79 843.109,1083.29 845.5,1083C 844.244,1082.58 843.577,1081.75 843.5,1080.5C 902.349,1050.01 954.349,1010.34 999.5,961.5 Z"/></g>
<g><path style="opacity:1" fill="#182232" d="M 822.5,1042.5 C 822.522,1057.02 821.855,1071.35 820.5,1085.5C 819.85,1070.79 820.517,1056.46 822.5,1042.5 Z"/></g>
<g><path style="opacity:1" fill="#1c2535" d="M 426.5,1086.5 C 423.916,1077.71 421.749,1068.71 420,1059.5C 417.82,1045.42 415.32,1031.42 412.5,1017.5C 412.5,1016.17 412.5,1014.83 412.5,1013.5C 413.117,1013.39 413.617,1013.06 414,1012.5C 414.333,1015.17 414.667,1017.83 415,1020.5C 416.465,1018.21 417.299,1018.71 417.5,1022C 416.545,1025.47 416.378,1028.97 417,1032.5C 420.635,1050.5 423.802,1068.5 426.5,1086.5 Z"/></g>
<g><path style="opacity:1" fill="#1a2622" d="M 797.5,1093.5 C 797.489,1095.02 796.823,1096.18 795.5,1097C 790.837,1099 786.17,1101 781.5,1103C 781.833,1103.33 782.167,1103.67 782.5,1104C 771.38,1109.05 760.047,1113.89 748.5,1118.5C 746.817,1121.35 744.65,1123.68 742,1125.5C 741.255,1124.01 740.088,1123.01 738.5,1122.5C 736.547,1123.16 734.547,1123.49 732.5,1123.5C 754.789,1114.86 776.455,1104.86 797.5,1093.5 Z"/></g>
<g><path style="opacity:1" fill="#172923" d="M 732.5,1123.5 C 726.444,1127.25 719.777,1129.75 712.5,1131C 710.875,1131.85 710.542,1132.85 711.5,1134C 704.483,1134.88 697.483,1135.88 690.5,1137C 679.025,1140.38 667.359,1142.21 655.5,1142.5C 658.167,1141.83 660.833,1141.17 663.5,1140.5C 687.09,1137.19 710.09,1131.52 732.5,1123.5 Z"/></g>
<g><path style="opacity:1" fill="#2b7b5f" d="M 663.5,1140.5 C 660.833,1141.17 658.167,1141.83 655.5,1142.5C 631.556,1145.39 607.556,1146.05 583.5,1144.5C 581.265,1144.79 579.265,1144.46 577.5,1143.5C 587.672,1143.63 597.838,1143.96 608,1144.5C 626.453,1142.82 644.953,1141.48 663.5,1140.5 Z"/></g>
<g><path style="opacity:1" fill="#142821" d="M 655.5,1142.5 C 650.833,1144.11 645.833,1145.28 640.5,1146C 622.5,1146.67 604.5,1146.67 586.5,1146C 585.263,1145.77 584.263,1145.27 583.5,1144.5C 607.556,1146.05 631.556,1145.39 655.5,1142.5 Z"/></g>
</svg>
