<?xml version="1.0" encoding="iso-8859-1"?>
<!-- Generator: Adobe Illustrator 19.0.0, SVG Export Plug-In . SVG Version: 6.00 Build 0)  -->
<svg version="1.1" id="Capa_1" xmlns="http://www.w3.org/2000/svg" xmlns:xlink="http://www.w3.org/1999/xlink" x="0px" y="0px"
	 viewBox="0 0 473.681 473.681" style="enable-background:new 0 0 473.681 473.681;" xml:space="preserve">
<circle style="fill:#D62427;" cx="236.85" cy="236.85" r="236.83"/>
<path style="fill:#DC3027;" d="M0.001,236.842C0.001,106.028,106.037,0,236.836,0c130.807,0,130.807,473.681,0,473.681
	C106.04,473.677,0.001,367.641,0.001,236.842z"/>
<g>
	<polygon style="fill:#F8D12E;" points="136.618,65.207 147.669,99.237 183.452,99.237 154.505,120.257 165.563,154.287 
		136.618,133.26 107.675,154.287 118.732,120.257 89.788,99.237 125.561,99.237 	"/>
	<polygon style="fill:#F8D12E;" points="220.081,45.851 216.596,57.788 226.866,64.792 214.443,65.155 210.965,77.099 
		206.766,65.39 194.335,65.768 204.174,58.158 199.975,46.457 210.251,53.461 	"/>
	<polygon style="fill:#F8D12E;" points="220.081,152.754 216.596,164.687 226.866,171.691 214.443,172.058 210.965,183.998 
		206.766,172.29 194.335,172.671 204.174,165.061 199.975,153.36 210.251,160.357 	"/>
	<polygon style="fill:#F8D12E;" points="250.383,78.434 246.898,90.371 257.171,97.375 244.745,97.745 241.262,109.682 
		237.064,97.973 224.637,98.351 234.469,90.741 230.275,79.04 240.553,86.044 	"/>
	<polygon style="fill:#F8D12E;" points="250.383,122.015 246.898,133.952 257.171,140.956 244.745,141.322 241.262,153.263 
		237.064,141.558 224.637,141.936 234.469,134.326 230.275,122.624 240.553,129.621 	"/>
</g>
<g>
</g>
<g>
</g>
<g>
</g>
<g>
</g>
<g>
</g>
<g>
</g>
<g>
</g>
<g>
</g>
<g>
</g>
<g>
</g>
<g>
</g>
<g>
</g>
<g>
</g>
<g>
</g>
<g>
</g>
</svg>
